<svg xmlns="http://www.w3.org/2000/svg" xmlns:xlink="http://www.w3.org/1999/xlink" width="24" height="24" viewBox="0 0 24 24">
    <defs>
        <path id="xh2hmw3sba" d="M0 0H24V24H0z"/>
        <path id="fmhmkiazec" d="M0 0.325L20.672 0.325 20.672 20.994 0 20.994z"/>
        <path id="1f3apbqole" d="M0.272 0.308L19.673 0.308 19.673 16.857 0.272 16.857z"/>
        <path id="79ad5xg8rg" d="M0 0.483L19.402 0.483 19.402 18.05 0 18.05z"/>
    </defs>
    <g fill="none" fill-rule="evenodd">
        <g>
            <g>
                <g>
                    <g>
                        <g transform="translate(-160 -29) translate(160 29)">
                            <mask id="bf12x7pweb" fill="#fff">
                                <use xlink:href="#xh2hmw3sba"/>
                            </mask>
                            <circle cx="12.5" cy="11.5" r="11.5" fill="#FFF" mask="url(#bf12x7pweb)"/>
                            <g mask="url(#bf12x7pweb)">
                                <g transform="translate(2 1)">
                                    <mask id="hs3famzhqd" fill="#fff">
                                        <use xlink:href="#fmhmkiazec"/>
                                    </mask>
                                    <path fill="#FEFEFE" d="M20.672 10.657c0 5.708-4.628 10.337-10.332 10.337C4.628 20.994 0 16.364 0 10.657 0 4.948 4.628.325 10.34.325c5.704 0 10.332 4.623 10.332 10.332" mask="url(#hs3famzhqd)"/>
                                </g>
                            </g>
                            <g mask="url(#bf12x7pweb)">
                                <g transform="translate(3 1)">
                                    <mask id="2aqct5xztf" fill="#fff">
                                        <use xlink:href="#1f3apbqole"/>
                                    </mask>
                                    <path fill="#E50120" d="M13.804 4.383c3.136.96 5.41 3.857 5.41 7.287 0 .5-.046.992-.135 1.462l-.014.068c-.237 1.341-.79 2.582-1.575 3.64l-.01.017c1.372-1.738 2.194-3.935 2.194-6.316C19.674 4.89 15.066.308 9.379.308c-2.595 0-4.958.954-6.765 2.522l-.025.019C1.167 4.152.272 6.017.272 8.096c0 .854.156 1.676.43 2.439l.022.036c.71 1.558 2.298 2.648 4.133 2.648 2.509 0 4.54-2.025 4.54-4.514l-.01-1.942c0-.896.495-1.67 1.235-2.07l.007-.006c.576-.316 1.24-.499 1.947-.499.426 0 .836.072 1.224.195h.004" mask="url(#2aqct5xztf)"/>
                                </g>
                            </g>
                            <g mask="url(#bf12x7pweb)">
                                <g transform="translate(2 4)">
                                    <mask id="opix5kb8ph" fill="#fff">
                                        <use xlink:href="#79ad5xg8rg"/>
                                    </mask>
                                    <path fill="#004998" d="M5.87 13.726C2.737 12.706.456 9.626.456 5.988c0-.531.053-1.049.148-1.552l.008-.072c.234-1.428.787-2.742 1.576-3.867l.005-.014C.825 2.33 0 4.659 0 7.188c0 6 4.607 10.862 10.298 10.862 2.591 0 4.956-1.007 6.766-2.674l.024-.022c1.422-1.38 2.314-3.36 2.314-5.57 0-.912-.149-1.782-.43-2.59l-.015-.035c-.713-1.658-2.295-2.811-4.136-2.811-2.506 0-4.54 2.148-4.54 4.789l.014 2.062c0 .946-.502 1.773-1.243 2.198l-.008.006c-.572.335-1.236.53-1.943.53-.425 0-.842-.075-1.228-.203l-.003-.004" mask="url(#opix5kb8ph)"/>
                                </g>
                            </g>
                        </g>
                    </g>
                </g>
            </g>
        </g>
    </g>
</svg>
